<?xml version="1.0" standalone="no"?>
<!DOCTYPE svg PUBLIC "-//W3C//DTD SVG 20010904//EN"
 "http://www.w3.org/TR/2001/REC-SVG-20010904/DTD/svg10.dtd">
<svg version="1.0" xmlns="http://www.w3.org/2000/svg"
 width="640.000000pt" height="342.000000pt" viewBox="0 0 640.000000 342.000000"
 preserveAspectRatio="xMidYMid meet">

<g transform="translate(0.000000,342.000000) scale(0.100000,-0.100000)"
fill="#000000" stroke="none">
<path d="M1230 2065 c0 -679 2 -1235 5 -1235 7 0 267 161 287 178 16 14 18 51
20 446 l3 430 55 31 c30 17 127 73 215 124 379 220 476 273 490 267 9 -3 142
-78 298 -167 155 -90 317 -182 360 -206 l77 -44 0 -529 0 -529 23 -12 c12 -6
168 -97 347 -202 529 -309 551 -322 636 -370 44 -26 86 -47 92 -47 15 0 149
77 902 521 170 100 162 88 88 130 -35 20 -103 60 -152 88 l-90 53 -35 -19
c-20 -11 -177 -99 -350 -197 -172 -98 -328 -184 -345 -193 l-32 -15 -284 162
c-157 89 -329 187 -382 217 l-98 55 0 443 0 443 168 92 c92 51 221 122 287
158 66 36 145 79 175 96 145 83 147 83 183 62 17 -10 124 -70 237 -133 113
-64 267 -151 344 -194 76 -44 140 -79 142 -79 14 0 284 174 282 182 -3 8 -188
119 -623 373 -49 29 -164 95 -253 148 l-164 95 -31 -18 c-18 -10 -169 -93
-337 -185 -168 -92 -360 -199 -428 -236 -68 -38 -128 -69 -133 -69 -5 0 -20 6
-32 14 -12 8 -197 112 -412 231 -214 120 -408 228 -431 241 l-40 24 -170 -101
c-304 -182 -573 -339 -578 -339 -3 0 -7 195 -8 432 l-3 433 -145 92 c-80 50
-148 92 -152 92 -5 1 -8 -555 -8 -1234z"/>
</g>
</svg>
