<svg clip-rule="evenodd" fill-rule="evenodd" stroke-linejoin="round" stroke-miterlimit="1.41421" viewBox="0 0 560 400" xmlns="http://www.w3.org/2000/svg"><g fill-rule="nonzero" transform="matrix(.360242 0 0 .360242 95.5563 121.467)"><path d="m301.553 420.669h47.049c35.911 0 67.278-8.579 67.278-44.308 0-23.342-16.95-38.106-40.978-40.014 22.259-5.717 36.424-17.149 36.424-40.015 0-30.733-25.295-41.923-61.969-41.923h-47.804zm25.294-75.744h16.438c21.755 0 45.782 3.574 45.782 29.293 0 22.389-20.488 26.917-43.249 26.917h-18.971zm0-70.981h26.561c14.668 0 32.623 4.996 32.623 24.765 0 24.539-20.74 26.682-45.271 26.682h-13.913zm245.256-15.406c-12.647-5.239-26.049-7.147-39.711-7.147-53.876 0-93.335 34.064-93.335 85.277 0 52.878 37.187 86.699 93.084 86.699 10.366 0 26.812-.711 40.214-5.951l-1.518-23.108c-8.848 5.005-25.798 8.093-38.445 8.093-36.674 0-66.523-25.962-66.523-65.022 0-37.395 27.064-65.031 67.79-65.031 12.898 0 25.294 3.097 36.423 9.29zm-367.355 50.129-27.211 62.134h54.726zm37.004 83.264h-74.234l-13.341 28.92h-26.084l75.519-165.383 76.42 165.383h-25.745zm-135.075-134.39c-12.136-4.051-26.049-5.959-37.681-5.959-31.878 0-56.661 15.726-56.661 45.262 0 51.69 75.883 41.446 75.883 78.606 0 19.526-20.237 27.151-34.654 27.151-12.899 0-28.079-4.762-36.675-8.102l-2.533 22.154c11.633 3.574 23.777 6.913 36.172 6.913 35.408 0 64.502-14.061 64.502-49.547 0-54.787-75.883-47.405-75.883-79.318 0-17.391 16.69-22.154 30.855-22.154 13.159 0 20.237 2.143 33.136 6.905z"/><path d="m582.306 27.359s154.194-52.636 313.219 39.641l1.084 55.646s59.159-17.366 115.061 3.252l-54.818 47.475s-142.752-157.109-362.021-97.95z" fill="#feb912"/><path d="m528.069 150.612 24.713 40.952s177.467-102.296 334.324 46.138l37.455-32.294s-166.632-178.534-396.492-54.796" fill="#009247"/><path d="m687.108 203.238s92.529-10.591 166.624 65.664l-35.547 35.548s-36.631-50.476-131.077-54.813z" fill="#0060af"/><path d="m686.024 297.941s52.384-8.422 99.867 35.547l-97.698 90.1z" fill="#ed1c24"/></g></svg>